<?xml version="1.0" standalone="no"?>
<!DOCTYPE svg PUBLIC "-//W3C//DTD SVG 20010904//EN"
 "http://www.w3.org/TR/2001/REC-SVG-20010904/DTD/svg10.dtd">
<svg version="1.0" xmlns="http://www.w3.org/2000/svg"
 width="250.000000pt" height="250.000000pt" viewBox="0 0 250.000000 250.000000"
 preserveAspectRatio="xMidYMid meet">
<metadata>
Created by potrace 1.11, written by Peter Selinger 2001-2013
</metadata>
<g transform="translate(0.000000,250.000000) scale(0.100000,-0.100000)"
fill="#000000" stroke="none">
<path d="M0 1250 l0 -1250 1250 0 1250 0 0 1250 0 1250 -1250 0 -1250 0 0
-1250z m2350 -10 l0 -1090 -1085 0 -1085 0 0 1090 0 1090 1085 0 1085 0 0
-1090z"/>
<path d="M1093 2196 c-303 -58 -555 -251 -693 -531 -54 -110 -86 -214 -96
-314 l-7 -64 174 6 c189 7 272 22 400 76 280 118 502 361 568 622 10 41 21
102 24 135 6 58 5 62 -16 68 -49 14 -282 16 -354 2z"/>
<path d="M1570 1240 l0 -920 53 21 c281 109 507 375 584 687 26 103 23 332 -5
439 -62 238 -205 448 -391 573 -55 37 -218 120 -235 120 -3 0 -6 -414 -6 -920z"/>
<path d="M300 1151 c0 -49 23 -158 48 -231 104 -300 373 -544 688 -622 95 -23
291 -31 386 -15 l48 8 -7 62 c-35 353 -298 662 -668 786 -108 36 -219 51 -377
51 l-118 0 0 -39z"/>
</g>
</svg>
