<svg id="Слой_1" data-name="Слой 1" xmlns="http://www.w3.org/2000/svg" viewBox="0 0 256 58.22"><defs><style>.cls-1{fill:#1b2551;}</style></defs><title>logo</title><path class="cls-1" d="M58.63.09V58.22H0V.09Zm-21,53.71A25.87,25.87,0,0,0,55.55,28.15a25.37,25.37,0,0,0-7-16.77A25.12,25.12,0,0,0,37.64,4.48Zm-2.81.82a3.9,3.9,0,0,0,.06-.44c0-.3,0-.6,0-.9a20.91,20.91,0,0,0-3.06-9.57A27.1,27.1,0,0,0,10.35,30.6c-2.38-.22-4.8,0-7.2,0C3.41,45.19,18.21,58.19,34.83,54.63ZM3.08,27.83c1.78,0,3.41,0,5,0A26.92,26.92,0,0,0,26.51,21,23.13,23.13,0,0,0,34.83,5.41c.17-1.71.17-1.75-1.54-2-.6-.08-1.2-.18-1.8-.21C20.29,2.68,11.88,7.33,6.25,17A24.69,24.69,0,0,0,3.08,27.83Z"/><path class="cls-1" d="M91.7,38.63v4.6c-1,0-2,0-3,0A75.86,75.86,0,0,1,80.34,43c-4.3-.55-6.73-3.36-6.81-7.73-.12-6.2-.05-12.4-.07-18.59,0-.7,0-1.39,0-2.15H91.3v4.54H78.41v6.82h12.1v4.67h-2.7c-2.85,0-5.7,0-8.54,0-.69,0-1,.19-.93.91.07,1.2,0,2.42.11,3.61a3.7,3.7,0,0,0,4,3.55C85.49,38.66,88.53,38.63,91.7,38.63Z"/><path class="cls-1" d="M108.75,34a5,5,0,0,0,2.74,4.77c2.89,1.54,6.2,1,9.26-1.57l2.67,3.08a10.45,10.45,0,0,1-5.77,3.19A12.34,12.34,0,0,1,108.28,42c-3.69-2.38-4.86-6-4.55-10.17.3-4,2.09-7.15,5.82-8.85a11.08,11.08,0,0,1,11.21.66A10.34,10.34,0,0,1,124.92,34ZM120,30.56C120,28,117.62,26,114.71,26c-3.11,0-5.91,2.18-5.83,4.6Z"/><path class="cls-1" d="M190.44,21.87a10.66,10.66,0,0,1,9.3,5.87,10.18,10.18,0,0,1-.55,11.14,11,11,0,0,1-11.56,4.8,10.57,10.57,0,0,1-9.18-8.41C176.75,28.35,182.15,21.89,190.44,21.87Zm-7.36,11a6.4,6.4,0,0,0,6.51,6.57,6.56,6.56,0,1,0,0-13.12A6.37,6.37,0,0,0,183.08,32.86Z"/><path class="cls-1" d="M213.15,22.54h4.9c0,.41,0,.77,0,1.13,0,3.59,0,7.17,0,10.76s1.9,5.16,5.37,4.82a3.82,3.82,0,0,0,3.75-3.76c.14-3.82.09-7.64.12-11.46,0-.46,0-.93,0-1.47h4.88a3.51,3.51,0,0,1,.09.53c0,4.09.09,8.18-.05,12.27-.15,4.41-2.53,7.15-6.82,8.13a11.86,11.86,0,0,1-6.83-.37c-3.12-1.13-5.17-3.34-5.35-6.63C213,31.88,213.15,27.25,213.15,22.54Z"/><path class="cls-1" d="M256,43.24c-1.76,0-3.27,0-4.77,0a1.6,1.6,0,0,1-1-.65c-1.62-2.17-3.2-4.37-4.88-6.68l-2.05,2.81c-.83,1.14-1.72,2.24-2.45,3.43a2.19,2.19,0,0,1-2.31,1.14c-1.19-.09-2.4,0-3.84,0l7.93-11-7.2-9.76c1.84,0,3.49,0,5.13,0,.24,0,.5.4.69.65,1.34,1.8,2.66,3.6,4.08,5.54,1.21-1.65,2.43-3.15,3.46-4.78a2.76,2.76,0,0,1,2.95-1.49,33.26,33.26,0,0,0,3.53,0l-7.21,9.75Z"/><path class="cls-1" d="M147.66,25.38l-3.21,2.83c-4-2.72-7.79-2.66-10.23.27a6.93,6.93,0,0,0,.3,8.94c2.62,2.69,6.43,2.62,9.91-.08l3.17,2.87c-3.56,4.54-11.54,4.85-16.24.69a11.06,11.06,0,0,1-.3-16C135.53,20.54,143.52,20.67,147.66,25.38Z"/><path class="cls-1" d="M151,14.52h4.85c0,1.09,0,2.14,0,3.2,0,1.24,0,2.48,0,3.72,0,.87.29,1.1,1.1,1.05,1.12-.06,2.25,0,3.43,0v4.42h-4.53c0,1.07,0,2,0,3,0,1.71,0,3.42.11,5.12.21,2.32,1.54,3.48,3.9,3.65l.64.06v4.37c-3.79.58-8.31-1.2-9.25-6.07a15.09,15.09,0,0,1-.27-2.79c0-6.3,0-12.59,0-18.89C150.89,15.09,150.93,14.86,151,14.52Z"/><path class="cls-1" d="M164.72,22.53h4.81V25.1c2-2.62,4.59-3.29,7.68-2.93v4.54c-.81,0-1.6,0-2.39,0a5.08,5.08,0,0,0-5.22,5.13c-.08,3.35,0,6.7,0,10.05,0,.4,0,.79,0,1.26h-4.85Z"/><path class="cls-1" d="M209.09,43.2H204.3V14.56h4.79Z"/><path class="cls-1" d="M100.2,43.2H95.47V14.56h4.74Z"/></svg>